<svg width="24" height="24" viewBox="0 0 24 24" fill="none" xmlns="http://www.w3.org/2000/svg">
<path d="M19.4787 0H4.45905C3.2773 0.00281025 2.14475 0.474603 1.30912 1.31219C0.473496 2.14977 0.0028037 3.28497 0 4.46948L0 19.5305C0.0028037 20.715 0.473496 21.8502 1.30912 22.6878C2.14475 23.5254 3.2773 23.9972 4.45905 24H19.4787C20.6604 23.9972 21.793 23.5254 22.6286 22.6878C23.4643 21.8502 23.9349 20.715 23.9377 19.5305V4.47574C23.9373 3.28994 23.4675 2.15275 22.6316 1.31367C21.7956 0.474597 20.6617 0.002155 19.4787 0V0ZM2.47309 4.46948C2.47342 3.94164 2.68276 3.43552 3.05513 3.06228C3.4275 2.68904 3.93244 2.4792 4.45905 2.47887H8.97431L2.47309 8.99531V4.46948ZM2.47309 12.5133L12.4841 2.47887H19.7035L2.46684 19.7559L2.47309 12.5133ZM4.22798 21.5149L6.60115 19.1362L8.97431 21.5149H4.22798ZM12.4841 21.5149L8.35604 17.3772L11.9658 13.759L19.716 21.5211L12.4841 21.5149ZM21.4647 19.7621L13.7206 12.0063L21.4647 4.26917V19.7621Z" fill="#FFFFFF"/>
</svg>
